<?xml version="1.0" encoding="utf-8"?>
<!-- Generator: Adobe Illustrator 24.0.3, SVG Export Plug-In . SVG Version: 6.00 Build 0)  -->
<svg version="1.1" id="Calque_1" xmlns="http://www.w3.org/2000/svg" xmlns:xlink="http://www.w3.org/1999/xlink" x="0px" y="0px"
	 viewBox="0 0 1080 1080" style="enable-background:new 0 0 1080 1080;" xml:space="preserve">
<style type="text/css">
	.st0{fill:#7F3F17;}
	.st1{fill:#FFAA0D;}
	.st2{fill:#FFAB0F;}
	.st3{fill:#FFAB0E;}
	.st4{fill:#804019;}
	.st5{fill:#804018;}
	.st6{fill:#81411A;}
	.st7{fill:#81421B;}
	.st8{fill:#80411A;}
	.st9{fill:#7F3F18;}
</style>
<g id="CENTRE">
	<path class="st0" d="M286.82,518.24c2.01-0.65,3.94-1.26,5.85-1.91c2.99-1.02,5.39-2.66,6.65-5.75c1.21-2.94,2.58-5.82,3.98-8.67
		c1.52-3.11,3.09-6.21,4.75-9.25c1.56-2.85,4.22-4.33,7.26-5.08c2.38-0.58,4.78-1.1,7.28-0.9c1.58,0.13,3.18,0.02,5.1,0.02
		c0.45-1.2,0.94-2.52,1.44-3.83c0.46-1.21,0.93-2.42,1.45-3.78c-0.78-0.41-1.51-0.85-2.28-1.18c-3.46-1.48-6.93-2.93-10.39-4.39
		c-0.53-0.23-1.08-0.43-1.59-0.7c-2.6-1.38-3.22-2.85-2.52-5.68c1.39-5.64,3.64-10.96,5.78-16.34c1.55-3.92,3.65-7.54,5.63-11.23
		c1.4-2.59,2.91-3.17,5.78-2.17c2.86,0.99,5.68,2.15,8.49,3.29c1.87,0.76,3.7,1.64,5.8,2.57c1.24-2.52,2.43-4.94,3.75-7.64
		c-0.99-0.94-2.02-1.91-3.05-2.89c-2.98-2.82-5.39-5.99-6.72-9.96c-0.58-1.74-0.63-3.33-0.23-5.08c1-4.4,2.73-8.53,4.34-12.71
		c0.67-1.75,1.18-3.58,1.97-5.28c1.75-3.78,1-7.35-0.71-10.86c-0.63-1.3-1.43-2.51-2.31-4.03c1.39-3.04,4.25-5.16,6.41-7.81
		c2.19-2.69,4.57-5.25,7.01-7.72c2.34-2.37,4.83-4.59,7.32-6.8c2.59-2.3,5.26-4.52,7.9-6.78c2.38,1.09,4.59,2.07,6.78,3.11
		c2.36,1.12,4.74,1.19,7.17,0.3c3.26-1.19,6.56-2.29,9.78-3.59c3.23-1.3,6.54-2.3,9.91-3.19c1.62-0.43,3.09-0.36,4.66,0.17
		c4.1,1.37,7.42,3.85,10.33,6.95c0.88,0.93,1.73,1.89,2.64,2.89c2.5-1.17,4.84-2.26,7.44-3.47c-0.34-1.01-0.65-2.07-1.06-3.09
		c-1.45-3.62-2.92-7.24-4.42-10.85c-0.65-1.56-0.71-3.08,0.06-5.07c9.52-6.08,20.22-10.26,31.53-13.26c2.05,0.6,3.38,1.95,4.19,3.97
		c1.56,3.9,3.2,7.76,4.82,11.64c0.21,0.51,0.51,0.99,0.89,1.73c1.41-0.52,2.73-1.01,4.04-1.5c1.21-0.45,2.41-0.89,3.69-1.36
		c0-2.14,0.11-4.18-0.03-6.19c-0.17-2.38,0.45-4.62,1.04-6.84c0.81-3.04,2.54-5.55,5.43-7.02c3.86-1.97,7.77-3.86,11.68-5.75
		c1.69-0.82,3.37-1.67,5.13-2.33c3.77-1.41,5.54-4.44,6.74-7.98c0.55-1.63,1.07-3.27,1.6-4.91c13.59-1.34,27-1.31,40.55-0.02
		c0.26,0.68,0.53,1.34,0.75,2.01c0.45,1.37,0.81,2.78,1.32,4.12c1.11,2.94,2.81,5.29,5.89,6.57c3.87,1.61,7.66,3.41,11.44,5.23
		c2.21,1.06,4.4,2.22,6.48,3.52c2.57,1.6,4.06,4.04,4.84,6.96c0.82,3.11,1.04,6.27,0.92,9.47c-0.04,1.01-0.01,2.02-0.01,3.15
		c2.45,0.93,4.86,1.85,7.51,2.87c0.4-0.72,0.86-1.42,1.18-2.16c1.6-3.73,3.2-7.45,4.72-11.21c0.75-1.86,1.95-3.19,3.84-3.86
		c9.52,1.75,25.22,8.53,31.86,13.23c0.78,1.67,0.76,3.32,0.05,5.03c-1.28,3.07-2.47,6.17-3.72,9.26c-0.58,1.45-1.2,2.88-1.87,4.48
		c2.51,1.23,4.81,2.36,7.42,3.63c0.7-0.69,1.53-1.44,2.26-2.27c2.71-3.1,5.91-5.52,9.7-7.16c2.06-0.89,4.04-1,6.32-0.44
		c4.39,1.08,8.52,2.79,12.72,4.36c2.3,0.86,4.63,1.66,6.96,2.44c1.99,0.66,3.98,0.67,5.94-0.2c2.37-1.06,4.74-2.11,7.16-3.2
		c6.56,3.87,22.77,19.91,28.92,28.72c-0.46,0.91-1,1.9-1.47,2.93c-0.72,1.57-1.45,3.15-2.09,4.76c-0.66,1.68-0.65,3.37-0.02,5.1
		c1.24,3.39,2.46,6.8,3.62,10.22c1.16,3.42,2.27,6.85,3.35,10.29c0.54,1.71,0.33,3.36-0.28,5.08c-1.39,3.94-3.88,7.07-6.82,9.91
		c-0.93,0.89-1.89,1.75-2.9,2.68c1.24,2.58,2.41,5.02,3.64,7.6c3.59-1.48,7.04-2.91,10.5-4.32c1.07-0.44,2.16-0.83,3.25-1.19
		c3.74-1.26,4.84-0.79,6.74,2.47c2.99,5.15,5.14,10.67,7.51,16.11c1.51,3.47,2.33,7.14,3.47,10.72c0.96,3.02,0.32,4.55-2.58,5.94
		c-2.6,1.25-5.29,2.33-7.95,3.45c-1.98,0.84-3.98,1.64-6.13,2.52c0.94,2.67,1.79,5.08,2.68,7.59c1.49,0.64,3.1,0.2,4.65,0.22
		c2.46,0.04,4.87,0.18,7.3,0.76c3.74,0.89,6.74,2.67,8.47,6.15c2,4.01,3.85,8.09,5.77,12.12c0.81,1.7,1.76,3.33,2.47,5.07
		c1.2,2.94,3.56,4.47,6.36,5.49c2.02,0.74,4.08,1.36,6.25,2.07c0.33,6.89,0.92,13.67,0.92,20.46c0,6.64-0.6,13.28-0.95,20.08
		c-0.87,0.29-1.66,0.58-2.46,0.83c-0.55,0.17-1.12,0.28-1.67,0.47c-5.56,1.88-6.82,2.87-9.45,8.16c-1.61,3.23-2.91,6.62-4.43,9.9
		c-0.91,1.96-2.01,3.84-3.01,5.76c-1.75,3.36-4.74,4.94-8.24,5.84c-3.28,0.84-6.61,0.69-9.94,0.62c-0.57-0.01-1.14-0.06-1.88-0.1
		c-0.94,2.58-1.87,5.13-2.89,7.93c0.84,0.4,1.56,0.79,2.32,1.11c3.73,1.57,7.48,3.09,11.21,4.68c0.78,0.33,1.54,0.8,2.19,1.35
		c1.32,1.12,1.83,2.49,1.23,4.27c-1.44,4.24-2.38,8.64-4.32,12.72c-1.05,2.22-1.8,4.58-2.88,6.79c-1.52,3.11-3.13,6.19-4.85,9.2
		c-1.04,1.82-2.79,2.37-4.85,1.61c-3.39-1.25-6.75-2.61-10.1-3.96c-1.47-0.6-2.91-1.3-4.61-2.07c-1.27,2.61-2.52,5.16-3.74,7.66
		c1.59,1.53,3.14,2.85,4.46,4.36c1.33,1.51,2.5,3.18,3.62,4.85c2.12,3.17,2.9,6.52,1.45,10.28c-1.4,3.64-2.56,7.37-3.83,11.05
		c-0.85,2.46-1.66,4.93-2.59,7.35c-0.84,2.18-0.61,4.29,0.28,6.34c0.97,2.25,2.07,4.44,3.24,6.9c-8.3,10.69-17.92,20.22-28.74,28.81
		c-1.07-0.54-2.07-1.07-3.09-1.56c-1.43-0.68-2.85-1.39-4.33-1.95c-1.94-0.74-3.83-0.68-5.92-0.12c-4.63,1.26-8.9,3.43-13.44,4.88
		c-2.48,0.79-4.96,1.62-7.5,2.14c-1.2,0.25-2.6,0.01-3.81-0.35c-3.08-0.92-5.83-2.5-8.16-4.76c-1.65-1.61-3.36-3.16-5.17-4.84
		c-2.26,1.07-4.7,2.22-7.26,3.44c1.55,3.77,3.11,7.48,4.61,11.22c0.54,1.34,1.08,2.7,1.4,4.1c0.5,2.17-0.22,3.51-2.14,4.71
		c-6.67,4.15-14.08,6.72-21.26,9.76c-1.98,0.84-4.15,1.21-6.24,1.79c-3.2,0.88-4.87,0.19-6.28-2.91c-1.73-3.82-3.29-7.73-4.93-11.59
		c-0.27-0.65-0.59-1.27-1-2.16c-2.53,0.88-4.94,1.71-7.56,2.62c-0.07,0.91-0.21,1.9-0.2,2.88c0.03,3.04,0.01,6.04-0.7,9.05
		c-0.88,3.74-2.73,6.54-6.1,8.53c-3.89,2.29-8.07,3.91-12.15,5.78c-1.18,0.54-2.34,1.16-3.56,1.6c-4.54,1.67-6.66,5.31-7.98,9.63
		c-0.34,1.1-0.58,2.23-0.92,3.55c-13.58,1.58-27.1,1.48-40.78,0.08c-0.32-0.94-0.66-1.87-0.97-2.82c-0.41-1.23-0.73-2.51-1.24-3.7
		c-1.1-2.58-2.62-4.73-5.39-5.91c-3.86-1.64-7.63-3.49-11.41-5.31c-2.08-1-4.12-2.1-6.17-3.18c-3.03-1.6-4.7-4.26-5.5-7.46
		c-0.56-2.24-1.05-4.5-0.9-6.86c0.12-1.86,0.02-3.74,0.02-5.76c-2.54-0.92-4.95-1.79-7.57-2.75c-0.42,0.75-0.88,1.45-1.21,2.2
		c-1.54,3.59-3.04,7.2-4.56,10.81c-0.17,0.4-0.3,0.82-0.51,1.2c-1.33,2.48-3.05,3.36-5.73,2.51c-3.84-1.23-7.82-2.04-11.52-3.75
		c-3.02-1.4-6.17-2.51-9.19-3.91c-2.35-1.1-4.59-2.44-6.86-3.71c-2.5-1.4-3.24-3.03-2.27-5.79c1.2-3.4,2.63-6.72,3.99-10.07
		c0.59-1.45,1.23-2.88,1.86-4.35c-2.58-1.22-5.03-2.38-7.4-3.5c-1.63,1.56-3.23,3.01-4.74,4.56c-2.28,2.33-5.06,3.79-8.04,4.99
		c-1.71,0.69-3.33,0.65-5.09,0.31c-4.59-0.88-8.8-2.85-13.15-4.4c-2.17-0.78-4.38-1.47-6.5-2.36c-2.46-1.03-4.86-0.74-7.18,0.22
		c-2.13,0.88-4.14,2.03-6.22,3.07c-5.78-2.88-23.56-20.42-29.08-28.67c1.12-2.54,2.22-5.02,3.31-7.51c0.79-1.81,0.86-3.62,0.17-5.5
		c-1.25-3.39-2.48-6.78-3.65-10.2c-1.16-3.42-2.25-6.86-3.33-10.3c-0.49-1.57-0.29-3.08,0.22-4.66c1.33-4.15,3.95-7.37,6.99-10.31
		c0.83-0.8,1.76-1.49,2.8-2.36c-0.82-2.79-2.64-5.06-3.47-7.86c-4.2,1.72-8.06,3.31-11.92,4.88c-1.07,0.44-2.16,0.85-3.26,1.2
		c-1.84,0.58-3.58,0.08-4.53-1.53c-1.61-2.74-3.23-5.49-4.55-8.37c-1.87-4.08-3.59-8.23-5.15-12.43c-1.06-2.84-1.82-5.8-2.57-8.74
		c-0.47-1.85,0.7-3.7,2.97-4.76c2.62-1.22,5.29-2.32,7.96-3.43c1.98-0.83,3.99-1.59,6.17-2.46c-0.99-2.74-1.91-5.29-2.84-7.88
		c-2.08,0-4.09,0.09-6.08-0.03c-2.01-0.12-4.05-0.3-6.01-0.73c-3.55-0.77-6.28-2.68-8.19-5.91c-2.3-3.88-3.9-8.07-5.76-12.15
		c-0.66-1.45-1.41-2.86-2.01-4.33c-1.42-3.49-4.09-5.5-7.57-6.62c-1.77-0.57-3.54-1.14-5.27-1.7
		C285.11,545.47,285.29,532.07,286.82,518.24z M694.43,536.4c-0.43-14.45-1.97-26.87-4.61-37.33c-8.74-34.61-26.47-63.7-53.4-87.19
		c-16.02-13.98-34.01-24.56-53.99-31.8c-15.5-5.61-31.5-8.76-47.93-9.72c-8.11-0.47-16.21-0.36-24.32,0.39
		c-13.63,1.26-26.95,3.94-39.87,8.43c-30.59,10.61-56.01,28.63-76.39,53.76c-20.91,25.78-33,55.29-36.83,88.18
		c-1.8,15.49-1.22,30.96,1.38,46.36c3.93,23.22,12.64,44.54,25.67,64.07c7.98,11.97,17.32,22.8,28.13,32.4
		c11.24,9.98,23.45,18.44,36.82,25.23c23.67,12.02,48.87,17.86,75.35,18.16c11.9,0.14,23.73-1.07,35.4-3.51
		c31.42-6.57,58.72-21.1,81.96-43.13c13.56-12.85,24.68-27.66,33.29-44.27c8.47-16.33,14.23-33.54,17.1-51.74
		C693.74,554.77,694.43,544.82,694.43,536.4z M677.18,683.05c-0.15-0.81-0.12-1.3-0.33-1.65c-1.97-3.26-4.63-5.89-7.79-7.98
		c-0.78-0.52-1.76-0.41-2.43,0.23c-2.08,2-4.13,4.02-6.08,6.14c-0.84,0.91-1.03,2.19-0.11,3.18c2.17,2.32,4.32,4.66,6.71,6.74
		c1.52,1.33,3.47,0.77,4.95-0.81c1.18-1.26,2.52-2.36,3.68-3.64C676.41,684.56,676.82,683.64,677.18,683.05z M525.62,734.08
		c0,0.07,0,0.14-0.01,0.21c-0.42-0.06-0.85-0.16-1.27-0.18c-5.25-0.26-5.58,0-5.8,5.36c-0.08,2.01-0.04,4.04,0.22,6.03
		c0.29,2.26,1.52,3.14,3.84,3.14c1.87,0.01,3.74,0.02,5.61,0c2.15-0.02,3.41-0.82,3.57-2.91c0.23-3.14,0.14-6.32,0.02-9.47
		c-0.05-1.27-1.03-2.07-2.31-2.17C528.21,734.01,526.91,734.08,525.62,734.08z M329.8,538.95
		C329.8,538.95,329.81,538.95,329.8,538.95c0.01-1.44,0.07-2.88-0.01-4.31c-0.07-1.28-0.88-2.47-1.98-2.51
		c-3.3-0.11-6.62-0.23-9.9,0.05c-2,0.17-2.71,1.54-2.71,3.75c0,1.87-0.02,3.74,0,5.61c0.02,2.04,0.92,3.22,2.96,3.63
		c3.14,0.63,6.3,0.57,9.45,0.01c1.27-0.23,2.07-1.06,2.17-2.34C329.88,541.55,329.8,540.25,329.8,538.95z M720.9,538.37
		c-0.04,0-0.09,0-0.13,0c0,1.44-0.04,2.88,0.01,4.32c0.04,1.11,0.64,2.06,1.66,2.29c3.69,0.84,7.42,0.99,11.07-0.22
		c1.15-0.38,1.88-1.29,1.87-2.63c-0.01-2.3,0.04-4.6-0.03-6.9c-0.05-1.63-0.87-2.87-2.56-3c-3.28-0.26-6.6-0.23-9.89-0.1
		c-1.36,0.05-2.11,1.25-2.14,2.8C720.75,536.07,720.85,537.22,720.9,538.37z M390.83,681.41c-0.21-0.56-0.26-1.06-0.54-1.34
		c-2.11-2.18-4.23-4.35-6.42-6.43c-0.82-0.78-1.94-0.71-2.82-0.03c-2.65,2.04-5.08,4.32-6.93,7.12c-1.15,1.73-0.82,3.13,0.73,4.61
		c1.25,1.19,2.5,2.39,3.68,3.64c1.42,1.51,3.48,2.01,4.99,0.67c2.37-2.1,4.52-4.47,6.7-6.78
		C390.59,682.49,390.66,681.84,390.83,681.41z M525.12,343.06c1.44,0,2.88,0.01,4.31,0c1.13-0.01,2.07-0.56,2.25-1.64
		c0.58-3.42,0.73-6.88,0.02-10.29c-0.38-1.81-1.6-2.61-3.45-2.61c-1.86,0-3.71,0.05-5.57,0.01c-2.3-0.04-3.75,0.85-3.9,3.08
		c-0.21,3.14-0.1,6.31,0.03,9.46c0.05,1.22,1.05,1.92,2.42,1.98C522.53,343.11,523.83,343.06,525.12,343.06z M667.87,404.08
		c0.59-0.12,1.11-0.09,1.42-0.32c2.9-2.18,5.6-4.6,7.46-7.76c0.79-1.33,0.43-2.94-0.86-3.9c-1.52-1.14-2.82-2.43-3.98-3.94
		c-1.33-1.73-2.79-1.95-4.55-0.72c-2.74,1.92-5.09,4.28-7.06,6.99c-0.68,0.93-0.68,2.01,0.07,2.82c1.96,2.12,4.01,4.15,6.08,6.17
		C666.83,403.78,667.47,403.9,667.87,404.08z M390.79,395.81c-0.13-0.49-0.13-0.82-0.29-1.04c-2.16-2.93-4.56-5.64-7.69-7.55
		c-1.48-0.9-2.82-0.72-3.88,0.63c-1.27,1.61-2.64,3.03-4.27,4.28c-1.43,1.1-1.62,2.71-0.61,4.29c1.82,2.84,4.32,5.06,6.92,7.16
		c0.94,0.76,2.37,0.67,3.22-0.16c2.08-2.01,4.09-4.09,6.07-6.2C390.61,396.83,390.66,396.17,390.79,395.81z M348.68,606.84
		c-2.63,0.46-4.48,1.62-6.4,2.54c-2.61,1.24-5.14,2.64-7.65,4.06c-1.24,0.71-1.38,1.56-0.5,2.88c0.48,0.72,0.89,1.36,1.09,2.27
		c0.45,2.05,1.11,2.41,3.02,1.8c3.99-1.27,7.95-2.62,11.9-3.99c0.62-0.22,1.17-0.67,1.9-1.1
		C350.2,612.74,348.99,610.2,348.68,606.84z M602.09,365.22c0.48-1.03,0.96-1.87,1.28-2.77c1.3-3.68,2.61-7.37,3.81-11.09
		c0.5-1.53-0.11-2.33-1.7-2.89c-1.31-0.46-2.59-1.02-4.05-1.6c-2.53,1.64-3.2,4.63-4.51,7.1c-1.31,2.45-2.98,4.87-3.17,7.94
		C596.85,362.29,599.39,363.56,602.09,365.22z M698.38,615.55c2.42,0.95,4.27,1.76,6.17,2.4c2.74,0.93,5.51,1.78,8.29,2.58
		c1.37,0.4,2.21-0.11,2.56-1.54c0.2-0.82,0.24-1.58,0.83-2.36c1.25-1.67,1.09-2.53-0.63-3.42c-4.11-2.12-8.29-4.12-12.47-6.12
		c-0.3-0.14-0.78,0.11-1.37,0.21C701.64,610.26,700.52,612.82,698.38,615.55z M593.59,715.13c0.17,1,0.16,1.59,0.38,2.08
		c0.76,1.71,1.57,3.39,2.42,5.06c1.17,2.31,2.36,4.61,3.61,6.87c0.59,1.07,1.81,1.61,2.5,0.96c1.13-1.06,2.49-1.2,3.8-1.68
		c0.48-0.17,0.89-1.09,0.96-1.7c0.07-0.67-0.27-1.39-0.49-2.07c-1.22-3.68-2.43-7.36-3.7-11.02c-0.22-0.62-0.73-1.13-1.26-1.93
		C599.55,713.95,596.9,714.81,593.59,715.13z M448.45,711.6c-0.68,1.69-1.19,2.84-1.6,4.02c-1.17,3.39-2.33,6.79-3.42,10.21
		c-0.48,1.52,0.07,2.51,1.67,2.85c0.85,0.18,1.56,0.39,2.32,0.89c1.74,1.15,2.44,0.98,3.39-0.84c2-3.82,3.92-7.68,5.8-11.55
		c0.27-0.56,0.15-1.31,0.22-2.11C453.67,714.98,451.15,713.82,448.45,711.6z M449.28,346.7c-1.57,0.71-2.68,1.31-3.86,1.72
		c-2.12,0.73-2.52,1.3-1.81,3.49c1.24,3.86,2.55,7.69,3.9,11.52c0.22,0.61,0.77,1.11,1.23,1.75c2.54-1.78,5.19-2.8,8.42-3.37
		c-0.69-2.55-1.83-4.71-2.94-6.83C452.76,352.2,451.69,349.16,449.28,346.7z M702.04,470.32c4.88-1.27,8.89-3.8,13.04-6.02
		c0.82-0.44,1.44-1.25,2.18-1.92c-0.7-1.21-1.41-2.11-1.74-3.14c-0.26-0.79,0-1.93-0.95-2.2c-0.9-0.26-2.01-0.26-2.9,0.02
		c-3.71,1.14-7.38,2.42-11.05,3.69c-0.65,0.22-1.22,0.67-2,1.11C700.66,464.34,701.43,467.17,702.04,470.32z M333.54,462.26
		c2.38,2.84,11.44,7.45,15.26,7.71c-0.03-3.03,1.75-5.47,3.12-8.31c-1.55-0.66-2.81-1.3-4.14-1.74c-3.26-1.09-6.54-2.15-9.85-3.1
		c-1.64-0.47-2.66,0.04-2.68,1.74C335.22,460.12,333.89,460.71,333.54,462.26z"/>
	<path class="st1" d="M528.92,698.29c-29.95,0.16-54.13-5.59-76.88-17.12c-16.31-8.26-30.73-19.12-43.21-32.53
		c-18.47-19.83-30.99-42.91-37.65-69.14c-4.53-17.86-5.67-35.99-4.16-54.37c1.01-12.36,3.43-24.37,7.16-36.15
		c6.22-19.59,15.98-37.27,29.27-52.93c17.1-20.15,37.88-35.32,62.36-45.35c10.91-4.47,22.21-7.52,33.83-9.5
		c9.17-1.56,18.42-2.27,27.69-2.19c20.19,0.18,39.74,3.93,58.52,11.45c16.72,6.69,31.91,15.97,45.31,27.96
		c19.12,17.1,33.38,37.66,42.56,61.69c4.68,12.26,7.8,24.9,9.35,37.88c1.33,11.09,1.42,22.23,0.53,33.42
		c-0.66,8.27-1.9,16.4-3.76,24.45c-6.38,27.61-19.28,51.84-38.83,72.29c-23.93,25.02-52.88,41.14-87.09,47.52
		C544.18,697.5,534.39,698.34,528.92,698.29z M417.58,537.86c-0.41,8.89,0.6,17.65,2.54,26.29c3.19,14.16,8.75,27.34,17.39,39.02
		c19.52,26.37,45.95,40.58,78.47,43.37c18.05,1.55,35.56-1.2,52.27-8.39c22.93-9.87,40.39-25.76,52.23-47.75
		c3.16-5.87,5.68-12.02,7.75-18.37c2.07-6.36,3.78-12.85,4.24-19.48c0.81-11.84,0.95-23.67-1.33-35.48
		c-2.11-10.92-5.73-21.24-10.75-31.07c-7.33-14.34-17.93-25.97-31-35.27c-20.56-14.62-43.51-21.18-68.74-20.03
		c-9.33,0.42-18.43,1.91-27.35,4.56c-17.45,5.19-32.62,14.32-45.35,27.26c-15.91,16.17-25.44,35.68-29.31,58
		C417.64,526.28,417.76,532.08,417.58,537.86z"/>
</g>
<g id="POIGNEES">
	<path class="st2" d="M810.31,558.76c1.65-7.03,2.65-13.6,2.38-20.29c-0.28-6.66-1.5-13.17-3.6-19.74c0.9-0.21,1.44-0.48,1.93-0.42
		c8.53,0.96,17.05,0.59,25.59,0.06c7.73-0.47,15.19-1.99,22.37-4.88c0.38-0.15,0.83-0.14,1.22-0.2c8.09,13.19,9.2,35.85,1.69,51.3
		c-1.01-0.28-2.12-0.47-3.14-0.89c-7.59-3.13-15.49-4.61-23.67-4.92c-7.38-0.29-14.75-0.66-22.13-0.03
		C812.23,558.81,811.52,558.76,810.31,558.76z"/>
	<path class="st2" d="M241.04,558.78c-1.09,0-2.08,0.08-3.06-0.01c-7.38-0.67-14.75-0.27-22.14,0c-8.18,0.3-16.09,1.78-23.7,4.83
		c-0.53,0.21-1.09,0.35-1.86,0.59c-0.48-0.69-1.06-1.32-1.39-2.05c-4.89-11-6.36-22.46-4.65-34.38c0.6-4.18,1.78-8.2,3.1-12.18
		c0.31-0.94,0.77-1.83,1.23-2.89c0.98,0.22,1.85,0.27,2.61,0.6c9.07,3.93,18.66,5.18,28.4,5.42c6.36,0.16,12.74-0.16,19.1-0.25
		c0.4-0.01,0.81,0.13,1.34,0.21c-0.69,4.49-1.51,8.87-2.01,13.28c-0.51,4.47-0.39,8.98,0.39,13.42
		C239.18,549.77,240.12,554.13,241.04,558.78z"/>
	<path class="st2" d="M338.64,753.79c-3.33,3.09-6.57,5.93-9.61,8.97c-3.08,3.07-6.08,6.23-8.89,9.53
		c-2.72,3.19-5.37,6.48-7.65,9.99c-2.34,3.61-4.2,7.53-6.25,11.29c-14.63-3.33-34.24-22.49-36.51-35.8
		c0.95-0.47,1.95-1.02,2.98-1.47c6.69-2.95,12.73-6.9,18.15-11.78c5.81-5.23,11.68-10.42,16.68-16.48c0.62-0.75,1.37-1.4,2.32-2.36
		c1.4,2.13,2.6,4.06,3.92,5.91c1.25,1.77,2.55,3.52,3.96,5.17c1.51,1.75,3.14,3.41,4.79,5.02c1.55,1.52,3.14,3.01,4.83,4.36
		c1.81,1.44,3.77,2.69,5.67,4.02C334.78,751.37,336.86,752.1,338.64,753.79z"/>
	<path class="st2" d="M745,283.82c16.91,6.47,29.02,18.13,36.19,35.23c-0.88,0.57-1.54,1.14-2.3,1.46
		c-7.7,3.25-14.45,7.91-20.62,13.51c-5.7,5.17-11.26,10.45-16.21,16.35c-0.35,0.41-0.8,0.74-1.22,1.12
		c-11.11-15.1-10.55-15.21-28.98-27.92c0.61-0.61,1.14-1.25,1.77-1.77c6.37-5.31,12-11.35,17.48-17.53
		c4.73-5.34,8.72-11.19,11.61-17.75C743.17,285.5,743.31,284.18,745,283.82z"/>
	<path class="st2" d="M545.54,254.35c-4.73-0.67-9.11-1.57-13.53-1.84c-4.46-0.28-9-0.26-13.44,0.23
		c-4.43,0.49-8.77,1.74-13.42,2.71c-0.06-0.92-0.29-1.88-0.17-2.8c1.3-9.69,0.49-19.38-0.21-29.05c-0.37-5.05-1.48-10.01-3.22-14.8
		c-0.53-1.46-0.92-2.97-1.35-4.37c13.52-7.98,35.44-8.77,50.62-1.44c-1.18,4.08-2.43,8.19-3.55,12.32
		c-1.14,4.21-1.61,8.52-1.74,12.87c-0.13,4.34-0.54,8.67-0.54,13.01C544.98,245.51,545.34,249.81,545.54,254.35z"/>
	<path class="st2" d="M744.41,793.94c-0.72-1.41-1.36-2.52-1.88-3.69c-2.75-6.13-6.44-11.64-10.86-16.68
		c-5.73-6.54-11.67-12.88-18.38-18.43c-0.43-0.36-0.78-0.8-1.09-1.12c0.04-1.29,1.01-1.49,1.71-1.89
		c10.23-5.95,18.4-13.96,24.32-24.23c0.43-0.75,0.92-1.47,1.43-2.17c0.14-0.2,0.45-0.28,1.14-0.68c0.23,0.38,0.48,0.92,0.85,1.37
		c5.28,6.38,11.28,12.03,17.43,17.54c5.53,4.96,11.59,9.12,18.4,12.16c0.66,0.29,1.3,0.61,1.95,0.93c0.12,0.06,0.22,0.19,0.58,0.51
		c-0.15,0.77-0.19,1.77-0.56,2.63c-2.62,6.18-6.09,11.85-10.55,16.86c-6.25,7.03-13.75,12.36-22.37,16.12
		C746,793.42,745.45,793.58,744.41,793.94z"/>
	<path class="st2" d="M270.67,319.67c1-5.26,5.85-13.79,11.09-19.49c6.76-7.35,14.55-13.2,24.2-16.72c0.55,0.81,1.14,1.45,1.46,2.2
		c3.37,7.82,8.28,14.56,13.98,20.84c4.98,5.49,10.18,10.71,15.78,15.56c0.52,0.45,0.96,0.98,1.7,1.74
		c-6.04,3.68-11.59,7.54-16.42,12.38c-4.75,4.75-8.34,10.33-11.97,16.18c-3.2-3.45-6.06-6.71-9.12-9.77
		c-3.07-3.08-6.23-6.08-9.53-8.9c-3.19-2.73-6.46-5.4-9.96-7.7C278.31,323.62,274.4,321.73,270.67,319.67z"/>
	<path class="st3" d="M499.63,874.17c0.31-1.02,0.58-2.11,0.98-3.16c2.6-6.67,4.08-13.57,4.35-20.74c0.19-4.92,0.56-9.84,0.64-14.77
		c0.05-3.03-0.3-6.08-0.44-9.11c-0.05-1.12-0.01-2.25-0.01-3.71c13.59,3.65,26.88,3.39,39.97-0.88c0.88,1.41,0.44,2.71,0.39,3.97
		c-0.18,4.2-0.65,8.4-0.51,12.58c0.28,8.1,0.3,16.25,2.37,24.18c0.62,2.38,1.38,4.73,2.08,7.08c0.32,1.09,0.66,2.18,0.97,3.18
		C540.66,880.92,512.67,881.68,499.63,874.17z"/>
	<path class="st4" d="M276.77,560.55c-2.75,2.5-4.99,4.53-7.47,6.78c-0.61-0.21-1.41-0.44-2.18-0.74c-3.9-1.51-7.78-3.1-11.71-4.53
		c-1.61-0.58-2.62-1.49-3.33-3.08c-4.14-9.34-5.68-19.03-4.31-29.19c0.62-4.6,1.72-9.04,3.59-13.03c6.18-2.36,12.09-4.62,18-6.87
		c2.41,2.2,4.73,4.32,7.39,6.75c-0.28,7.12-0.79,14.6-0.79,22.09C275.97,546.08,276.49,553.43,276.77,560.55z"/>
	<path class="st4" d="M773.76,516.66c2.78-2.47,5.03-4.48,7.5-6.68c0.62,0.16,1.47,0.27,2.24,0.58c3.76,1.47,7.48,3.08,11.27,4.47
		c1.61,0.59,2.67,1.43,3.39,3.02c6.03,13.41,6.8,27.02,1.86,40.93c-0.43,1.2-1.07,1.92-2.28,2.35c-5.43,1.92-10.84,3.9-16.52,5.96
		c-2.2-2.01-4.62-4.22-7.44-6.79c0.34-7.02,0.98-14.51,0.98-21.99C774.76,531.16,774.11,523.81,773.76,516.66z"/>
	<path class="st5" d="M365,729.85c-0.16,3.69-0.3,6.84-0.45,10.22c-1.93,0.79-3.94,1.57-5.91,2.44c-2.65,1.17-5.3,2.34-7.88,3.65
		c-1.42,0.72-2.73,0.79-4.15,0.18c-13.36-5.66-23.35-14.84-29.47-28.09c-0.51-1.11-0.76-2.17-0.23-3.32
		c2.4-5.25,4.8-10.51,7.28-15.93c3.13,0,6.29,0,9.91,0c3.03,3.33,6.26,7.02,9.64,10.57c3.4,3.56,6.87,7.06,10.44,10.45
		C357.74,723.4,361.45,726.63,365,729.85z"/>
	<path class="st5" d="M685.54,347.26c0.16-3.34,0.31-6.5,0.48-9.99c1.08-0.51,2.34-1.14,3.63-1.7c3.04-1.33,6.19-2.47,9.12-4
		c2.03-1.06,3.74-0.95,5.74-0.09c5.63,2.4,10.81,5.48,15.4,9.55c5.7,5.06,10.17,11.03,13.4,17.94c0.66,1.42,0.77,2.66,0.09,4.12
		c-2.07,4.45-4.01,8.96-6.02,13.44c-0.23,0.51-0.56,0.98-0.76,1.32c-3.34,0.17-6.49,0.34-9.97,0.52
		c-4.85-5.25-9.78-10.91-15.07-16.21C696.38,356.94,690.81,352.11,685.54,347.26z"/>
	<path class="st4" d="M496.52,794.7c2.24-2.48,4.35-4.83,6.85-7.59c4.39-0.08,9.26,0.59,14.14,0.8c5.05,0.22,10.11,0.25,15.16,0.01
		c4.9-0.23,9.79-0.6,14.5-0.9c2.39,2.65,4.59,5.1,6.94,7.7c-0.63,1.57-1.27,3.16-1.9,4.75c-0.96,2.42-2.18,4.77-2.81,7.27
		c-0.66,2.58-2.24,3.72-4.54,4.66c-13.16,5.4-26.39,5.86-39.81,1.05c-1.52-0.55-2.33-1.36-2.87-2.88c-1.5-4.22-3.19-8.37-4.8-12.55
		C497.06,796.23,496.78,795.42,496.52,794.7z"/>
	<path class="st5" d="M686.07,740.02c-0.19-3.3-0.36-6.45-0.57-10.07c3.3-2.99,7-6.2,10.54-9.58c3.56-3.39,7.03-6.87,10.42-10.43
		c3.39-3.55,6.63-7.25,10-10.96c3.23,0,6.52,0,10.04,0c2.33,5.28,4.64,10.54,7.05,16.01c-1.87,5.51-4.74,10.64-8.43,15.33
		c-5.38,6.83-12.19,11.84-19.97,15.65c-1.98,0.97-3.65,1.1-5.7,0.04c-3.46-1.78-7.11-3.2-10.67-4.78
		C687.86,740.85,686.96,740.43,686.07,740.02z"/>
	<path class="st5" d="M323.93,377.81c-2.21-5.09-4.4-10.13-6.61-15.22c3.4-13.48,16.84-27.5,31.37-32.26
		c5.29,2.32,10.57,4.64,15.9,6.97c0.12,3.18,0.25,6.34,0.39,10.09c-3.22,2.92-6.91,6.13-10.44,9.5c-3.66,3.5-7.24,7.09-10.73,10.75
		c-3.39,3.55-6.62,7.25-9.78,10.72C330.66,378.18,327.51,378,323.93,377.81z"/>
	<path class="st4" d="M554.11,282.58c-2.3,2.5-4.44,4.82-6.81,7.38c-7.23,0.46-14.69-1.14-22.19-0.86
		c-7.35,0.28-14.7,0.69-21.75,1.03c-2.4-2.64-4.53-4.98-6.85-7.54c1.88-4.77,3.83-9.72,5.86-14.85c5.12-2.81,10.74-4.61,16.64-5.52
		c8.9-1.38,17.59-0.4,26.08,2.58c1.71,0.6,2.9,1.41,3.54,3.37c1.34,4.12,3.1,8.1,4.68,12.14
		C553.62,281.08,553.88,281.9,554.11,282.58z"/>
	<path class="st6" d="M552.85,195.94c-3.99-0.66-7.4-2.26-11.04-2.99c-3.84-0.77-7.68-1.34-11.59-1.6c-3.78-0.26-7.54-0.1-11.24,0.4
		c-3.85,0.52-7.64,1.52-11.44,2.42c-3.58,0.85-6.93,2.48-10.54,3.71c0-0.82-0.1-1.14,0.01-1.36c2.27-4.36,4.53-8.71,6.85-13.04
		c1.91-3.57,3.92-7.09,5.82-10.66c0.69-1.29,1.71-1.77,3.11-1.98c8.37-1.25,16.72-1.23,25.08,0.01c1.43,0.21,2.39,0.79,3.07,2.06
		c1.91,3.57,3.96,7.07,5.81,10.66C548.81,187.53,550.71,191.57,552.85,195.94z"/>
	<path class="st6" d="M255.33,289.22c5.37-8.07,12.18-14.87,20.49-20.54c9.3,1.51,17.96,5.63,27.5,8.23
		c-4.49,2.5-8.64,4.69-12.68,7.08c-4.14,2.44-7.87,5.48-11.2,8.92c-3.33,3.44-6.42,7.11-8.78,11.31c-2.32,4.11-4.56,8.26-7.03,12.75
		C261.16,307.41,257.07,298.78,255.33,289.22z"/>
	<path class="st7" d="M774.7,808.57c-9.55-1.74-18.01-5.68-27.04-8.12c0.43-1.17,1.64-1.28,2.57-1.71c5.68-2.61,11-5.81,15.86-9.73
		c7.91-6.39,13.78-14.36,18.15-23.49c0.79-1.65,1.58-3.3,2.68-5.6c2.42,9.87,6.65,18.43,8.29,28.08
		C789.87,796.09,782.95,802.95,774.7,808.57z"/>
	<path class="st8" d="M539.73,905.96c-9.65,1.76-19.15,1.78-28.85,0c-5.33-7.43-8.64-16.03-13.1-24.51
		c5.05,1.31,9.6,2.63,14.21,3.65c4.68,1.03,9.46,1.2,14.25,1.05c4.66-0.15,9.25-0.73,13.72-1.99c4.52-1.27,8.96-2.83,14.05-4.46
		c-4.65,8.73-8.97,16.87-13.32,24.99C540.44,905.17,540.02,905.58,539.73,905.96z"/>
	<path class="st8" d="M787.16,315.66c-4.37-9.06-9.37-17.12-16.47-23.69c-6.92-6.41-15-10.98-24.59-14.85
		c10.24-2.61,18.89-6.75,28.54-8.49c8.2,5.34,14.98,12.33,20.67,20.56C793.61,298.11,790.1,306.49,787.16,315.66z"/>
	<path class="st7" d="M255.31,788.01c1.75-8.9,5.15-17.15,8.01-25.89c2.54,4.34,4.84,8.47,7.33,12.49c2.45,3.95,5.52,7.41,8.9,10.6
		c3.48,3.29,7.22,6.26,11.41,8.58c4.02,2.22,8.12,4.3,12.24,6.47c-4.54,1.52-8.96,3.06-13.42,4.47c-4.53,1.43-9.11,2.73-13.56,4.06
		C267.71,803.09,260.87,796.16,255.31,788.01z"/>
	<path class="st8" d="M867.72,511.01c8.41,4.15,17.06,7.84,24.86,13.09c1.87,9.6,1.79,19.09,0.08,28.88
		c-6.93,4.97-14.94,8.31-23.11,12.32c0.1-1.04,0.04-1.72,0.25-2.31c2.39-6.75,3.66-13.72,3.86-20.85
		c0.23-8.18-1.18-16.15-3.91-23.87c-0.68-1.91-1.44-3.79-2.07-5.72c-0.15-0.47,0.04-1.05,0.07-1.58L867.72,511.01z"/>
	<path class="st8" d="M182.98,565.75c-0.38,0.05-0.84,0.26-1.12,0.12c-4.42-2.16-8.85-4.29-13.2-6.58
		c-3.58-1.88-7.06-3.94-10.58-5.92c-1.91-9.79-1.83-19.41-0.12-29.21c7.08-4.92,15.05-8.33,23.23-12.32
		c-0.18,1.17-0.2,1.99-0.45,2.75c-2.8,8.45-4.41,17.07-3.82,26.02c0.49,7.56,2.25,14.85,4.93,21.92c0.41,1.07,0.7,2.18,1.05,3.27
		C182.88,565.8,182.98,565.75,182.98,565.75z"/>
</g>
<g id="DIAPH">
	<path class="st0" d="M521.18,550.76c2.04,1.28,3.5,2.15,4.92,3.08c7.14,4.71,14.41,9.19,22.22,12.75
		c9.02,4.11,18.49,6.62,28.29,8.15c7.16,1.12,14.35,1.9,21.55,2.63c4.46,0.45,8.94,0.74,13.4,1.12c0.85,0.07,1.7,0.21,2.77,0.34
		c-0.99,3.99-2.63,7.49-4.43,10.91c-5.28,10.06-12.69,18.3-21.83,24.97c-5.73,4.18-11.58,8.21-17.41,12.26
		c-2.26,1.57-4.7,2.82-7.31,3.76c-4.24,1.52-8.01,0.93-11.11-2.45c-1.56-1.7-3.11-3.46-4.38-5.38c-4.72-7.13-9.53-14.21-13.9-21.56
		c-6.29-10.56-10.19-22.02-11.97-34.23C521.23,561.93,521.22,556.77,521.18,550.76z"/>
	<path class="st0" d="M534.69,539.65c0.58-1.44,0.95-2.51,1.44-3.52c5.13-10.64,8.53-21.84,10.25-33.49
		c1.73-11.77,1.89-23.6,0.54-35.48c-0.9-7.91-2.08-15.76-3.65-23.55c-0.08-0.39,0.05-0.82,0.11-1.55c1.9-0.08,3.72,0.21,5.49,0.65
		c15.11,3.74,28.89,10.22,40.76,20.38c6.06,5.19,11.47,11.04,16.08,17.58c2.42,3.43,2.39,6.19-0.08,9.57
		c-17.28,23.62-39.46,40.45-67.76,48.77C536.95,539.27,535.98,539.39,534.69,539.65z"/>
	<path class="st9" d="M529.52,548.56c1.93-0.67,3.37-1.3,4.87-1.68c19.24-4.98,36.32-14.13,51.58-26.76
		c8.95-7.41,16.87-15.84,24.32-24.74c0.64-0.77,1.32-1.51,2.17-2.48c0.63,1,1.22,1.78,1.65,2.65c4.62,9.41,7.91,19.3,9.53,29.63
		c0.85,5.39,0.82,10.96,0.84,16.44c0.02,6.09-0.89,12.11-2.32,18.03c-0.44,1.83-0.9,3.66-1.51,5.43c-1.43,4.21-4.71,6.66-9.1,6.74
		c-9.71,0.17-19.42-0.25-28.98-1.84c-17.89-2.97-34.54-9.41-49.87-19.15C531.75,550.24,530.87,549.53,529.52,548.56z"/>
	<path class="st9" d="M519.5,526.84c-5.11-0.72-9.96-1.47-14.83-2.08c-8.67-1.1-17.32-0.73-25.99,0.28
		c-17.45,2.03-33.84,7.51-49.69,14.84c-1.03,0.48-2.12,0.84-3.49,1.37c-0.21-0.84-0.51-1.47-0.51-2.11
		c-0.02-17.36,3.21-33.95,11.74-49.28c3.4-6.11,7.5-11.69,12.16-16.88c3.04-3.38,6.32-4.15,10.53-2.28
		c3.56,1.58,7.05,3.33,10.5,5.13c12.14,6.34,23.22,14.21,32.8,24.01c6.5,6.64,11.95,14.15,16.45,22.31
		C520.32,524.22,520.28,524.23,519.5,526.84z"/>
	<path class="st0" d="M461.91,463.93c1.57-3.1,4.12-4.84,6.45-6.72c5.45-4.41,11.63-7.6,17.97-10.48
		c7.68-3.49,15.68-6.06,23.96-7.57c5.84-1.06,11.76-1.54,17.72-0.47c4.47,0.81,7.19,3.14,8.39,7.63
		c3.85,14.39,5.76,28.98,4.88,43.87c-0.8,13.57-3.89,26.63-9.02,39.21c-0.16,0.39-0.47,0.72-0.93,1.41
		c-5.01-9.85-10.57-19.12-17.53-27.45c-7.09-8.48-15.12-15.96-24-22.57C481.08,474.27,471.62,469,461.91,463.93z"/>
	<path class="st9" d="M512.42,534.25c-2.33,2.18-4.4,4.18-6.54,6.11c-9.34,8.43-16.92,18.26-23.18,29.13
		c-7.8,13.53-13.03,28.08-16.86,43.17c-0.39,1.52-0.8,3.03-1.28,4.84c-0.86-0.46-1.53-0.7-2.06-1.11
		c-15.8-12.36-27.59-27.58-33.36-47.03c-1.03-3.46-1.75-7.02-2.53-10.55c-1.2-5.38,1.01-10.03,5.84-12.64
		c9.99-5.39,20.56-9.35,31.51-12.2c7.29-1.89,14.77-2.92,22.31-3.3c0.43-0.02,0.9,0.12,1.3,0.02c3.3-0.87,6.58-0.55,9.91-0.08
		c3.58,0.5,7.19,0.83,10.79,1.02C510.09,531.72,511.21,532.62,512.42,534.25z"/>
	<path class="st0" d="M547.44,634.16c-0.77,0.45-1.13,0.79-1.52,0.86c-4.41,0.72-8.66,2.23-13.19,2.36
		c-3.03,0.09-6.06,0.5-9.09,0.58c-16.9,0.43-32.55-4.11-47.34-12.03c-3.55-1.9-5.18-5.04-4.3-9.04c1.24-5.64,2.57-11.29,4.24-16.82
		c3.1-10.28,7.26-20.13,12.87-29.33c5.24-8.58,11.5-16.31,18.94-23.08c0.75-0.68,1.51-1.35,2.32-1.96c1.12-0.85,2.25-0.3,2.38,1.19
		c0.25,2.88,0.51,5.77,0.62,8.66c0.53,12.96,4.11,25.09,10.16,36.48c4.48,8.43,9.2,16.73,13.9,25.04c2.71,4.78,5.59,9.47,8.38,14.2
		C546.33,632.15,546.81,633.03,547.44,634.16z"/>
</g>
</svg>
